<svg xmlns="http://www.w3.org/2000/svg" xmlns:xlink="http://www.w3.org/1999/xlink" viewBox="0 0 341 150" width="341" height="150"><path d="M 34.000,111.000 C 36.417,112.296 36.500,112.000 39.000,113.000" stroke-width="5.366" stroke="black" fill="none" stroke-linecap="round"></path><path d="M 39.000,113.000 C 41.972,113.841 41.917,113.796 45.000,114.000" stroke-width="4.919" stroke="black" fill="none" stroke-linecap="round"></path><path d="M 45.000,114.000 C 51.536,114.359 51.472,114.341 58.000,114.000" stroke-width="4.317" stroke="black" fill="none" stroke-linecap="round"></path><path d="M 58.000,114.000 C 60.667,113.933 60.536,113.859 63.000,113.000" stroke-width="4.281" stroke="black" fill="none" stroke-linecap="round"></path><path d="M 63.000,113.000 C 65.398,111.301 65.667,111.933 68.000,110.000" stroke-width="4.169" stroke="black" fill="none" stroke-linecap="round"></path><path d="M 68.000,110.000 C 71.889,109.074 71.398,108.301 75.000,107.000" stroke-width="3.912" stroke="black" fill="none" stroke-linecap="round"></path><path d="M 75.000,107.000 C 77.500,104.500 77.889,105.074 80.000,102.000" stroke-width="3.904" stroke="black" fill="none" stroke-linecap="round"></path><path d="M 80.000,102.000 C 82.772,99.723 82.500,99.500 85.000,97.000" stroke-width="3.902" stroke="black" fill="none" stroke-linecap="round"></path><path d="M 85.000,97.000 C 87.000,94.000 87.272,94.223 89.000,91.000" stroke-width="3.885" stroke="black" fill="none" stroke-linecap="round"></path><path d="M 89.000,91.000 C 90.728,87.777 91.000,88.000 93.000,85.000" stroke-width="3.880" stroke="black" fill="none" stroke-linecap="round"></path><path d="M 93.000,85.000 C 96.013,82.838 95.228,82.277 98.000,80.000" stroke-width="4.393" stroke="black" fill="none" stroke-linecap="round"></path><path d="M 98.000,80.000 C 99.210,77.568 99.513,77.838 100.000,75.000" stroke-width="4.719" stroke="black" fill="none" stroke-linecap="round"></path><path d="M 100.000,75.000 C 100.621,70.860 101.210,71.068 102.000,67.000" stroke-width="4.601" stroke="black" fill="none" stroke-linecap="round"></path><path d="M 102.000,67.000 C 103.209,63.814 103.121,63.860 105.000,61.000" stroke-width="4.135" stroke="black" fill="none" stroke-linecap="round"></path><path d="M 105.000,61.000 C 107.370,58.716 106.709,58.314 109.000,56.000" stroke-width="4.710" stroke="black" fill="none" stroke-linecap="round"></path><path d="M 109.000,56.000 C 109.401,53.056 110.370,53.716 111.000,51.000" stroke-width="4.837" stroke="black" fill="none" stroke-linecap="round"></path><path d="M 111.000,51.000 C 114.462,46.487 112.901,48.556 116.000,47.000" stroke-width="5.246" stroke="black" fill="none" stroke-linecap="round"></path><path d="M 116.000,47.000 C 116.404,50.019 117.462,47.487 117.000,53.000" stroke-width="5.378" stroke="black" fill="none" stroke-linecap="round"></path><path d="M 117.000,53.000 C 117.737,57.581 117.904,57.519 119.000,62.000" stroke-width="4.674" stroke="black" fill="none" stroke-linecap="round"></path><path d="M 119.000,62.000 C 120.150,64.449 119.737,64.581 121.000,67.000" stroke-width="4.800" stroke="black" fill="none" stroke-linecap="round"></path><path d="M 121.000,67.000 C 122.452,70.437 122.150,70.449 123.000,74.000" stroke-width="5.003" stroke="black" fill="none" stroke-linecap="round"></path><path d="M 123.000,74.000 C 123.000,77.000 123.452,76.937 123.000,80.000" stroke-width="5.114" stroke="black" fill="none" stroke-linecap="round"></path><path d="M 123.000,80.000 C 123.000,83.000 123.000,83.000 123.000,86.000" stroke-width="4.891" stroke="black" fill="none" stroke-linecap="round"></path><path d="M 123.000,86.000 C 123.000,90.500 123.000,90.500 123.000,95.000" stroke-width="4.592" stroke="black" fill="none" stroke-linecap="round"></path><path d="M 123.000,95.000 C 123.270,100.730 123.000,98.000 123.000,101.000" stroke-width="4.899" stroke="black" fill="none" stroke-linecap="round"></path><path d="M 123.000,101.000 C 122.802,98.406 122.770,101.230 122.000,96.000" stroke-width="5.321" stroke="black" fill="none" stroke-linecap="round"></path><path d="M 122.000,96.000 C 120.798,92.339 120.802,92.406 119.000,89.000" stroke-width="5.129" stroke="black" fill="none" stroke-linecap="round"></path><path d="M 119.000,89.000 C 117.119,85.913 117.298,85.839 115.000,83.000" stroke-width="4.826" stroke="black" fill="none" stroke-linecap="round"></path><path d="M 115.000,83.000 C 113.355,80.094 113.119,80.413 111.000,78.000" stroke-width="5.063" stroke="black" fill="none" stroke-linecap="round"></path><path d="M 111.000,78.000 C 108.692,75.979 108.855,76.094 106.000,75.000" stroke-width="5.038" stroke="black" fill="none" stroke-linecap="round"></path><path d="M 106.000,75.000 C 102.959,74.683 103.192,73.979 100.000,74.000" stroke-width="5.133" stroke="black" fill="none" stroke-linecap="round"></path><path d="M 100.000,74.000 C 96.541,72.817 96.459,73.183 93.000,72.000" stroke-width="4.175" stroke="black" fill="none" stroke-linecap="round"></path><path d="M 93.000,72.000 C 89.972,70.788 90.041,71.317 87.000,71.000" stroke-width="4.546" stroke="black" fill="none" stroke-linecap="round"></path><path d="M 87.000,71.000 C 82.962,71.868 82.972,71.288 79.000,73.000" stroke-width="4.494" stroke="black" fill="none" stroke-linecap="round"></path><path d="M 79.000,73.000 C 74.274,72.961 75.962,73.868 73.000,75.000" stroke-width="4.665" stroke="black" fill="none" stroke-linecap="round"></path><path d="M 73.000,75.000 C 72.782,78.321 71.774,76.961 74.000,81.000" stroke-width="5.088" stroke="black" fill="none" stroke-linecap="round"></path><path d="M 74.000,81.000 C 75.556,84.099 75.282,83.821 78.000,86.000" stroke-width="5.008" stroke="black" fill="none" stroke-linecap="round"></path><path d="M 78.000,86.000 C 80.406,87.352 80.056,87.599 83.000,88.000" stroke-width="5.070" stroke="black" fill="none" stroke-linecap="round"></path><path d="M 83.000,88.000 C 86.484,88.730 86.406,88.852 90.000,89.000" stroke-width="4.737" stroke="black" fill="none" stroke-linecap="round"></path><path d="M 90.000,89.000 C 93.021,89.248 92.984,89.230 96.000,89.000" stroke-width="4.265" stroke="black" fill="none" stroke-linecap="round"></path><path d="M 96.000,89.000 C 99.070,88.781 99.021,88.748 102.000,88.000" stroke-width="4.179" stroke="black" fill="none" stroke-linecap="round"></path><path d="M 102.000,88.000 C 106.607,86.757 106.570,86.781 111.000,85.000" stroke-width="4.415" stroke="black" fill="none" stroke-linecap="round"></path><path d="M 111.000,85.000 C 114.000,83.500 114.107,83.757 117.000,82.000" stroke-width="4.902" stroke="black" fill="none" stroke-linecap="round"></path><path d="M 117.000,82.000 C 119.949,80.387 120.000,80.500 123.000,79.000" stroke-width="5.033" stroke="black" fill="none" stroke-linecap="round"></path><path d="M 123.000,79.000 C 125.551,78.113 125.449,77.887 128.000,77.000" stroke-width="5.217" stroke="black" fill="none" stroke-linecap="round"></path><path d="M 128.000,77.000 C 131.459,76.079 131.051,75.613 134.000,74.000" stroke-width="5.227" stroke="black" fill="none" stroke-linecap="round"></path><path d="M 134.000,74.000 C 136.137,70.576 136.959,71.579 139.000,68.000" stroke-width="4.987" stroke="black" fill="none" stroke-linecap="round"></path><path d="M 139.000,68.000 C 141.617,66.668 141.137,66.076 144.000,65.000" stroke-width="4.840" stroke="black" fill="none" stroke-linecap="round"></path><path d="M 144.000,65.000 C 146.522,63.027 146.617,63.168 149.000,61.000" stroke-width="5.042" stroke="black" fill="none" stroke-linecap="round"></path><path d="M 149.000,61.000 C 152.722,59.038 152.022,58.527 155.000,56.000" stroke-width="4.944" stroke="black" fill="none" stroke-linecap="round"></path><path d="M 155.000,56.000 C 156.500,52.500 157.222,53.038 158.000,49.000" stroke-width="4.900" stroke="black" fill="none" stroke-linecap="round"></path><path d="M 158.000,49.000 C 161.566,44.832 159.500,45.500 161.000,42.000" stroke-width="4.936" stroke="black" fill="none" stroke-linecap="round"></path><path d="M 161.000,42.000 C 158.284,38.746 160.566,39.832 156.000,39.000" stroke-width="5.299" stroke="black" fill="none" stroke-linecap="round"></path><path d="M 156.000,39.000 C 153.315,40.633 153.784,39.246 152.000,43.000" stroke-width="5.034" stroke="black" fill="none" stroke-linecap="round"></path><path d="M 152.000,43.000 C 151.181,45.468 150.815,45.133 151.000,48.000" stroke-width="5.096" stroke="black" fill="none" stroke-linecap="round"></path><path d="M 151.000,48.000 C 151.522,52.564 150.681,52.468 151.000,57.000" stroke-width="4.603" stroke="black" fill="none" stroke-linecap="round"></path><path d="M 151.000,57.000 C 150.301,61.097 150.522,61.064 149.000,65.000" stroke-width="4.550" stroke="black" fill="none" stroke-linecap="round"></path><path d="M 149.000,65.000 C 146.890,69.960 147.301,70.097 145.000,75.000" stroke-width="4.351" stroke="black" fill="none" stroke-linecap="round"></path><path d="M 145.000,75.000 C 144.080,78.029 143.890,77.960 143.000,81.000" stroke-width="4.603" stroke="black" fill="none" stroke-linecap="round"></path><path d="M 143.000,81.000 C 142.000,83.500 142.080,83.529 141.000,86.000" stroke-width="4.950" stroke="black" fill="none" stroke-linecap="round"></path><path d="M 141.000,86.000 C 138.777,88.551 140.000,88.500 139.000,91.000" stroke-width="5.032" stroke="black" fill="none" stroke-linecap="round"></path><path d="M 139.000,91.000 C 139.658,94.893 139.277,94.051 142.000,97.000" stroke-width="5.155" stroke="black" fill="none" stroke-linecap="round"></path><path d="M 142.000,97.000 C 145.386,98.888 144.658,99.393 149.000,100.000" stroke-width="4.995" stroke="black" fill="none" stroke-linecap="round"></path><path d="M 149.000,100.000 C 152.041,101.228 151.886,100.888 155.000,101.000" stroke-width="4.851" stroke="black" fill="none" stroke-linecap="round"></path><path d="M 155.000,101.000 C 158.905,100.688 158.541,100.728 162.000,99.000" stroke-width="5.084" stroke="black" fill="none" stroke-linecap="round"></path><path d="M 162.000,99.000 C 164.584,97.361 164.405,97.688 166.000,95.000" stroke-width="4.912" stroke="black" fill="none" stroke-linecap="round"></path><path d="M 166.000,95.000 C 167.487,92.079 167.584,92.361 168.000,89.000" stroke-width="5.119" stroke="black" fill="none" stroke-linecap="round"></path><path d="M 168.000,89.000 C 169.268,85.282 168.487,86.079 168.000,83.000" stroke-width="5.185" stroke="black" fill="none" stroke-linecap="round"></path><path d="M 168.000,83.000 C 165.711,80.739 166.768,80.782 163.000,80.000" stroke-width="5.343" stroke="black" fill="none" stroke-linecap="round"></path><path d="M 163.000,80.000 C 159.789,79.239 160.211,79.239 157.000,80.000" stroke-width="5.277" stroke="black" fill="none" stroke-linecap="round"></path><path d="M 157.000,80.000 C 154.000,81.000 154.289,80.739 152.000,83.000" stroke-width="5.362" stroke="black" fill="none" stroke-linecap="round"></path><path d="M 199.000,81.000 C 200.565,78.609 200.000,78.500 201.000,76.000" stroke-width="5.495" stroke="black" fill="none" stroke-linecap="round"></path><path d="M 201.000,76.000 C 202.413,71.543 201.565,72.609 201.000,69.000" stroke-width="4.342" stroke="black" fill="none" stroke-linecap="round"></path><path d="M 201.000,69.000 C 198.594,67.216 199.913,67.043 196.000,67.000" stroke-width="5.038" stroke="black" fill="none" stroke-linecap="round"></path><path d="M 196.000,67.000 C 192.056,66.611 192.594,66.716 189.000,68.000" stroke-width="4.747" stroke="black" fill="none" stroke-linecap="round"></path><path d="M 189.000,68.000 C 186.901,69.909 186.556,69.111 185.000,72.000" stroke-width="5.030" stroke="black" fill="none" stroke-linecap="round"></path><path d="M 185.000,72.000 C 180.705,75.021 181.901,75.409 179.000,79.000" stroke-width="4.841" stroke="black" fill="none" stroke-linecap="round"></path><path d="M 179.000,79.000 C 178.475,82.585 177.705,82.021 179.000,86.000" stroke-width="4.716" stroke="black" fill="none" stroke-linecap="round"></path><path d="M 179.000,86.000 C 180.000,89.000 179.475,89.085 181.000,92.000" stroke-width="4.996" stroke="black" fill="none" stroke-linecap="round"></path><path d="M 181.000,92.000 C 180.908,96.140 182.000,95.000 183.000,98.000" stroke-width="5.221" stroke="black" fill="none" stroke-linecap="round"></path><path d="M 183.000,98.000 C 186.459,99.183 185.408,100.140 190.000,100.000" stroke-width="5.142" stroke="black" fill="none" stroke-linecap="round"></path><path d="M 190.000,100.000 C 192.986,101.000 192.959,100.683 196.000,101.000" stroke-width="5.036" stroke="black" fill="none" stroke-linecap="round"></path><path d="M 196.000,101.000 C 200.999,101.539 200.486,101.000 205.000,100.000" stroke-width="4.899" stroke="black" fill="none" stroke-linecap="round"></path></svg>